<?xml version="1.0" encoding="utf-8" standalone="no"?>
<!DOCTYPE svg PUBLIC "-//W3C//DTD SVG 1.1//EN"
  "http://www.w3.org/Graphics/SVG/1.1/DTD/svg11.dtd">
<!-- Created with matplotlib (https://matplotlib.org/) -->
<svg height="288pt" version="1.1" viewBox="0 0 432 288" width="432pt" xmlns="http://www.w3.org/2000/svg" xmlns:xlink="http://www.w3.org/1999/xlink">
 <defs>
  <style type="text/css">
*{stroke-linecap:butt;stroke-linejoin:round;}
  </style>
 </defs>
 <g id="figure_1">
  <g id="patch_1">
   <path d="M 0 288 
L 432 288 
L 432 0 
L 0 0 
z
" style="fill:#ffffff;"/>
  </g>
  <g id="axes_1">
   <g id="patch_2">
    <path d="M 54 252 
L 388.8 252 
L 388.8 34.56 
L 54 34.56 
z
" style="fill:#ffffff;"/>
   </g>
   <g id="matplotlib.axis_1">
    <g id="xtick_1">
     <g id="line2d_1">
      <defs>
       <path d="M 0 0 
L 0 3.5 
" id="m061021ee4a" style="stroke:#000000;stroke-width:0.8;"/>
      </defs>
      <g>
       <use style="stroke:#000000;stroke-width:0.8;" x="54" xlink:href="#m061021ee4a" y="252"/>
      </g>
     </g>
     <g id="text_1">
      <!-- 0 -->
      <defs>
       <path d="M 4.34375 34.46875 
Q 4.34375 53.515625 10.546875 63.28125 
Q 16.75 73.046875 28.421875 73.046875 
Q 50.828125 73.046875 50.828125 36.234375 
Q 50.828125 18.0625 44.59375 8.421875 
Q 38.375 -1.21875 26.8125 -1.21875 
Q 15.875 -1.21875 10.109375 8.125 
Q 4.34375 17.484375 4.34375 34.46875 
z
M 12.25 34.859375 
Q 12.25 5.375 27.640625 5.375 
Q 42.921875 5.375 42.921875 35.296875 
Q 42.921875 66.40625 28.03125 66.40625 
Q 12.25 66.40625 12.25 34.859375 
z
" id="MalgunGothic-48"/>
      </defs>
      <g transform="translate(51.246094 266.592188)scale(0.1 -0.1)">
       <use xlink:href="#MalgunGothic-48"/>
      </g>
     </g>
    </g>
    <g id="xtick_2">
     <g id="line2d_2">
      <g>
       <use style="stroke:#000000;stroke-width:0.8;" x="96.923077" xlink:href="#m061021ee4a" y="252"/>
      </g>
     </g>
     <g id="text_2">
      <!-- 5 -->
      <defs>
       <path d="M 48 21.921875 
Q 48 11.28125 41.1875 5.03125 
Q 34.375 -1.21875 22.953125 -1.21875 
Q 12.9375 -1.21875 8.0625 1.765625 
L 8.0625 10.15625 
Q 15.53125 5.375 23.046875 5.375 
Q 30.765625 5.375 35.46875 9.84375 
Q 40.1875 14.3125 40.1875 21.4375 
Q 40.1875 28.71875 35.390625 32.6875 
Q 30.609375 36.671875 21.578125 36.671875 
Q 15.53125 36.671875 9.421875 35.9375 
L 11.859375 71.875 
L 44.828125 71.875 
L 44.828125 64.796875 
L 18.84375 64.796875 
L 17.28125 43.171875 
Q 21.046875 43.5 24.171875 43.5 
Q 35.359375 43.5 41.671875 37.71875 
Q 48 31.9375 48 21.921875 
z
" id="MalgunGothic-53"/>
      </defs>
      <g transform="translate(94.169171 266.592188)scale(0.1 -0.1)">
       <use xlink:href="#MalgunGothic-53"/>
      </g>
     </g>
    </g>
    <g id="xtick_3">
     <g id="line2d_3">
      <g>
       <use style="stroke:#000000;stroke-width:0.8;" x="139.846154" xlink:href="#m061021ee4a" y="252"/>
      </g>
     </g>
     <g id="text_3">
      <!-- 10 -->
      <defs>
       <path d="M 34.859375 0 
L 27.09375 0 
L 27.09375 62.0625 
Q 24.859375 59.8125 19.78125 57.203125 
Q 14.703125 54.59375 10.5 53.5625 
L 10.5 61.859375 
Q 15.875 63.375 22.015625 66.796875 
Q 28.171875 70.21875 31.734375 73.4375 
L 34.859375 73.4375 
z
" id="MalgunGothic-49"/>
      </defs>
      <g transform="translate(134.338341 266.592188)scale(0.1 -0.1)">
       <use xlink:href="#MalgunGothic-49"/>
       <use x="55.078125" xlink:href="#MalgunGothic-48"/>
      </g>
     </g>
    </g>
    <g id="xtick_4">
     <g id="line2d_4">
      <g>
       <use style="stroke:#000000;stroke-width:0.8;" x="182.769231" xlink:href="#m061021ee4a" y="252"/>
      </g>
     </g>
     <g id="text_4">
      <!-- 15 -->
      <g transform="translate(177.261418 266.592188)scale(0.1 -0.1)">
       <use xlink:href="#MalgunGothic-49"/>
       <use x="55.078125" xlink:href="#MalgunGothic-53"/>
      </g>
     </g>
    </g>
    <g id="xtick_5">
     <g id="line2d_5">
      <g>
       <use style="stroke:#000000;stroke-width:0.8;" x="225.692308" xlink:href="#m061021ee4a" y="252"/>
      </g>
     </g>
     <g id="text_5">
      <!-- 20 -->
      <defs>
       <path d="M 39.359375 52.6875 
Q 39.359375 59.125 35.546875 62.78125 
Q 31.734375 66.453125 25.4375 66.453125 
Q 20.953125 66.453125 16.453125 64.125 
Q 11.96875 61.8125 8.34375 57.765625 
L 8.34375 66.15625 
Q 15.328125 73.046875 26.421875 73.046875 
Q 35.640625 73.046875 41.28125 67.71875 
Q 46.921875 62.40625 46.921875 53.375 
Q 46.921875 45.609375 43.3125 39.765625 
Q 39.703125 33.9375 31 27.734375 
Q 22.796875 21.96875 19.59375 18.984375 
Q 16.40625 16.015625 15.109375 13.34375 
Q 13.8125 10.6875 13.8125 7.03125 
L 48.6875 7.03125 
L 48.6875 0 
L 5.5625 0 
L 5.5625 3.515625 
Q 5.5625 9.421875 7.203125 13.59375 
Q 8.84375 17.78125 12.671875 21.75 
Q 16.5 25.734375 24.953125 31.59375 
Q 32.671875 36.921875 36.015625 41.71875 
Q 39.359375 46.53125 39.359375 52.6875 
z
" id="MalgunGothic-50"/>
      </defs>
      <g transform="translate(220.184495 266.592188)scale(0.1 -0.1)">
       <use xlink:href="#MalgunGothic-50"/>
       <use x="55.078125" xlink:href="#MalgunGothic-48"/>
      </g>
     </g>
    </g>
    <g id="xtick_6">
     <g id="line2d_6">
      <g>
       <use style="stroke:#000000;stroke-width:0.8;" x="268.615385" xlink:href="#m061021ee4a" y="252"/>
      </g>
     </g>
     <g id="text_6">
      <!-- 25 -->
      <g transform="translate(263.107572 266.592188)scale(0.1 -0.1)">
       <use xlink:href="#MalgunGothic-50"/>
       <use x="55.078125" xlink:href="#MalgunGothic-53"/>
      </g>
     </g>
    </g>
    <g id="xtick_7">
     <g id="line2d_7">
      <g>
       <use style="stroke:#000000;stroke-width:0.8;" x="311.538462" xlink:href="#m061021ee4a" y="252"/>
      </g>
     </g>
     <g id="text_7">
      <!-- 30 -->
      <defs>
       <path d="M 6.5 11.234375 
Q 13.921875 5.375 23.09375 5.375 
Q 30.609375 5.375 35.21875 9.171875 
Q 39.84375 12.984375 39.84375 19.484375 
Q 39.84375 33.890625 19.578125 33.890625 
L 13.625 33.890625 
L 13.625 40.484375 
L 19.28125 40.484375 
Q 37.3125 40.484375 37.3125 53.953125 
Q 37.3125 66.40625 23.578125 66.40625 
Q 15.96875 66.40625 9.28125 61.1875 
L 9.28125 68.953125 
Q 16.109375 73.046875 25.53125 73.046875 
Q 34.125 73.046875 39.671875 68.3125 
Q 45.21875 63.578125 45.21875 55.953125 
Q 45.21875 41.84375 30.8125 37.640625 
L 30.8125 37.5 
Q 38.578125 36.8125 43.1875 32.078125 
Q 47.796875 27.34375 47.796875 20.3125 
Q 47.796875 10.5 40.6875 4.640625 
Q 33.59375 -1.21875 22.65625 -1.21875 
Q 12.59375 -1.21875 6.5 2.640625 
z
" id="MalgunGothic-51"/>
      </defs>
      <g transform="translate(306.030649 266.592188)scale(0.1 -0.1)">
       <use xlink:href="#MalgunGothic-51"/>
       <use x="55.078125" xlink:href="#MalgunGothic-48"/>
      </g>
     </g>
    </g>
    <g id="xtick_8">
     <g id="line2d_8">
      <g>
       <use style="stroke:#000000;stroke-width:0.8;" x="354.461538" xlink:href="#m061021ee4a" y="252"/>
      </g>
     </g>
     <g id="text_8">
      <!-- 35 -->
      <g transform="translate(348.953726 266.592188)scale(0.1 -0.1)">
       <use xlink:href="#MalgunGothic-51"/>
       <use x="55.078125" xlink:href="#MalgunGothic-53"/>
      </g>
     </g>
    </g>
   </g>
   <g id="matplotlib.axis_2">
    <g id="ytick_1">
     <g id="line2d_9">
      <defs>
       <path d="M 0 0 
L -3.5 0 
" id="m60799939e2" style="stroke:#000000;stroke-width:0.8;"/>
      </defs>
      <g>
       <use style="stroke:#000000;stroke-width:0.8;" x="54" xlink:href="#m60799939e2" y="228.760098"/>
      </g>
     </g>
     <g id="text_9">
      <!-- 10 -->
      <g transform="translate(35.984375 232.556192)scale(0.1 -0.1)">
       <use xlink:href="#MalgunGothic-49"/>
       <use x="55.078125" xlink:href="#MalgunGothic-48"/>
      </g>
     </g>
    </g>
    <g id="ytick_2">
     <g id="line2d_10">
      <g>
       <use style="stroke:#000000;stroke-width:0.8;" x="54" xlink:href="#m60799939e2" y="202.047568"/>
      </g>
     </g>
     <g id="text_10">
      <!-- 20 -->
      <g transform="translate(35.984375 205.843661)scale(0.1 -0.1)">
       <use xlink:href="#MalgunGothic-50"/>
       <use x="55.078125" xlink:href="#MalgunGothic-48"/>
      </g>
     </g>
    </g>
    <g id="ytick_3">
     <g id="line2d_11">
      <g>
       <use style="stroke:#000000;stroke-width:0.8;" x="54" xlink:href="#m60799939e2" y="175.335037"/>
      </g>
     </g>
     <g id="text_11">
      <!-- 30 -->
      <g transform="translate(35.984375 179.131131)scale(0.1 -0.1)">
       <use xlink:href="#MalgunGothic-51"/>
       <use x="55.078125" xlink:href="#MalgunGothic-48"/>
      </g>
     </g>
    </g>
    <g id="ytick_4">
     <g id="line2d_12">
      <g>
       <use style="stroke:#000000;stroke-width:0.8;" x="54" xlink:href="#m60799939e2" y="148.622506"/>
      </g>
     </g>
     <g id="text_12">
      <!-- 40 -->
      <defs>
       <path d="M 42.234375 71.875 
L 42.234375 24.421875 
L 51.703125 24.421875 
L 51.703125 17.390625 
L 42.234375 17.390625 
L 42.234375 0 
L 34.578125 0 
L 34.578125 17.390625 
L 0.78125 17.390625 
L 0.78125 23.96875 
Q 11.375 35.890625 20.234375 48.578125 
Q 29.109375 61.28125 33.9375 71.875 
z
M 9.765625 24.421875 
L 34.578125 24.421875 
L 34.578125 59.859375 
Q 25.203125 43.5625 14.984375 30.953125 
z
" id="MalgunGothic-52"/>
      </defs>
      <g transform="translate(35.984375 152.4186)scale(0.1 -0.1)">
       <use xlink:href="#MalgunGothic-52"/>
       <use x="55.078125" xlink:href="#MalgunGothic-48"/>
      </g>
     </g>
    </g>
    <g id="ytick_5">
     <g id="line2d_13">
      <g>
       <use style="stroke:#000000;stroke-width:0.8;" x="54" xlink:href="#m60799939e2" y="121.909975"/>
      </g>
     </g>
     <g id="text_13">
      <!-- 50 -->
      <g transform="translate(35.984375 125.706069)scale(0.1 -0.1)">
       <use xlink:href="#MalgunGothic-53"/>
       <use x="55.078125" xlink:href="#MalgunGothic-48"/>
      </g>
     </g>
    </g>
    <g id="ytick_6">
     <g id="line2d_14">
      <g>
       <use style="stroke:#000000;stroke-width:0.8;" x="54" xlink:href="#m60799939e2" y="95.197445"/>
      </g>
     </g>
     <g id="text_14">
      <!-- 60 -->
      <defs>
       <path d="M 46.578125 63.578125 
Q 40.921875 66.40625 34.8125 66.40625 
Q 24.859375 66.40625 19.1875 57.640625 
Q 13.53125 48.875 13.578125 34.578125 
L 13.8125 34.578125 
Q 18.796875 44.875 30.28125 44.875 
Q 39.796875 44.875 45.359375 38.71875 
Q 50.921875 32.5625 50.921875 22.65625 
Q 50.921875 12.453125 44.640625 5.609375 
Q 38.375 -1.21875 28.515625 -1.21875 
Q 17.4375 -1.21875 11.5 7.46875 
Q 5.5625 16.15625 5.5625 31.546875 
Q 5.5625 49.703125 13.234375 61.375 
Q 20.90625 73.046875 34.71875 73.046875 
Q 42.1875 73.046875 46.578125 71 
z
M 14.15625 23.53125 
Q 14.15625 15.96875 18.203125 10.671875 
Q 22.265625 5.375 28.8125 5.375 
Q 35.109375 5.375 39.03125 10.078125 
Q 42.96875 14.796875 42.96875 21.6875 
Q 42.96875 29.5 39.203125 33.859375 
Q 35.453125 38.234375 28.71875 38.234375 
Q 22.5625 38.234375 18.359375 33.953125 
Q 14.15625 29.6875 14.15625 23.53125 
z
" id="MalgunGothic-54"/>
      </defs>
      <g transform="translate(35.984375 98.993538)scale(0.1 -0.1)">
       <use xlink:href="#MalgunGothic-54"/>
       <use x="55.078125" xlink:href="#MalgunGothic-48"/>
      </g>
     </g>
    </g>
    <g id="ytick_7">
     <g id="line2d_15">
      <g>
       <use style="stroke:#000000;stroke-width:0.8;" x="54" xlink:href="#m60799939e2" y="68.484914"/>
      </g>
     </g>
     <g id="text_15">
      <!-- 70 -->
      <defs>
       <path d="M 50.203125 67.140625 
Q 38.71875 46.96875 32.25 29.96875 
Q 25.78125 12.984375 24.21875 0 
L 15.765625 0 
Q 16.9375 8.296875 20.15625 18.375 
Q 23.390625 28.46875 28.359375 39.640625 
Q 33.34375 50.828125 41.109375 64.796875 
L 4.546875 64.796875 
L 4.546875 71.875 
L 50.203125 71.875 
z
" id="MalgunGothic-55"/>
      </defs>
      <g transform="translate(35.984375 72.281008)scale(0.1 -0.1)">
       <use xlink:href="#MalgunGothic-55"/>
       <use x="55.078125" xlink:href="#MalgunGothic-48"/>
      </g>
     </g>
    </g>
    <g id="ytick_8">
     <g id="line2d_16">
      <g>
       <use style="stroke:#000000;stroke-width:0.8;" x="54" xlink:href="#m60799939e2" y="41.772383"/>
      </g>
     </g>
     <g id="text_16">
      <!-- 80 -->
      <defs>
       <path d="M 4.734375 20.015625 
Q 4.734375 26.078125 8.421875 31.421875 
Q 12.109375 36.765625 18.015625 38.96875 
Q 13.375 41.359375 10.546875 45.546875 
Q 7.71875 49.75 7.71875 54.6875 
Q 7.71875 59.8125 10.296875 64.03125 
Q 12.890625 68.265625 17.53125 70.65625 
Q 22.171875 73.046875 27.78125 73.046875 
Q 36.46875 73.046875 42.1875 67.84375 
Q 47.90625 62.640625 47.90625 54.6875 
Q 47.90625 49.703125 45.015625 45.53125 
Q 42.140625 41.359375 37.703125 38.96875 
Q 43.5625 36.71875 47.21875 31.390625 
Q 50.875 26.078125 50.875 20.015625 
Q 50.875 10.5 44.421875 4.640625 
Q 37.984375 -1.21875 27.78125 -1.21875 
Q 17.671875 -1.21875 11.203125 4.703125 
Q 4.734375 10.640625 4.734375 20.015625 
z
M 12.640625 20.75 
Q 12.640625 13.71875 16.890625 9.546875 
Q 21.140625 5.375 27.828125 5.375 
Q 34.46875 5.375 38.78125 9.671875 
Q 43.109375 13.96875 43.109375 20.75 
Q 43.109375 27.046875 38.78125 31.421875 
Q 34.46875 35.796875 27.828125 35.796875 
Q 21.4375 35.796875 17.03125 31.5625 
Q 12.640625 27.34375 12.640625 20.75 
z
M 15.671875 54.046875 
Q 15.671875 48.828125 19.28125 45.3125 
Q 22.90625 41.796875 27.828125 41.796875 
Q 32.765625 41.796875 36.40625 45.3125 
Q 40.046875 48.828125 40.046875 54.046875 
Q 40.046875 59.421875 36.578125 62.90625 
Q 33.109375 66.40625 27.828125 66.40625 
Q 22.65625 66.40625 19.15625 62.953125 
Q 15.671875 59.515625 15.671875 54.046875 
z
" id="MalgunGothic-56"/>
      </defs>
      <g transform="translate(35.984375 45.568477)scale(0.1 -0.1)">
       <use xlink:href="#MalgunGothic-56"/>
       <use x="55.078125" xlink:href="#MalgunGothic-48"/>
      </g>
     </g>
    </g>
   </g>
   <g id="line2d_17">
    <path clip-path="url(#pab9cf76858)" d="M 54 95.197445 
L 62.584615 135.266241 
L 71.169231 167.321278 
L 79.753846 113.896216 
L 88.338462 127.252482 
L 96.923077 119.238722 
L 105.507692 132.594988 
L 114.092308 178.00629 
L 122.676923 65.813661 
L 131.261538 81.841179 
L 139.846154 71.156167 
L 148.430769 60.471155 
L 157.015385 183.348796 
L 165.6 87.183686 
L 174.184615 210.061327 
L 182.769231 55.128649 
L 191.353846 164.650025 
L 199.938462 140.608747 
L 208.523077 132.594988 
L 217.107692 148.622506 
L 225.692308 145.951253 
L 234.276923 116.567469 
L 242.861538 65.813661 
L 251.446154 242.116364 
L 260.030769 132.594988 
L 268.615385 210.061327 
L 277.2 92.526192 
L 285.784615 68.484914 
L 294.369231 153.965012 
L 302.953846 60.471155 
L 311.538462 239.445111 
L 320.123077 84.512432 
L 328.707692 194.033808 
L 337.292308 76.498673 
L 345.876923 71.156167 
L 354.461538 116.567469 
L 363.046154 44.443636 
L 371.630769 127.252482 
L 380.215385 81.841179 
L 388.8 55.128649 
" style="fill:none;stroke:#ff69b4;stroke-dasharray:5.55,2.4;stroke-dashoffset:0;stroke-width:1.5;"/>
   </g>
   <g id="patch_3">
    <path d="M 54 252 
L 54 34.56 
" style="fill:none;stroke:#000000;stroke-linecap:square;stroke-linejoin:miter;stroke-width:0.8;"/>
   </g>
   <g id="patch_4">
    <path d="M 388.8 252 
L 388.8 34.56 
" style="fill:none;stroke:#000000;stroke-linecap:square;stroke-linejoin:miter;stroke-width:0.8;"/>
   </g>
   <g id="patch_5">
    <path d="M 54 252 
L 388.8 252 
" style="fill:none;stroke:#000000;stroke-linecap:square;stroke-linejoin:miter;stroke-width:0.8;"/>
   </g>
   <g id="patch_6">
    <path d="M 54 34.56 
L 388.8 34.56 
" style="fill:none;stroke:#000000;stroke-linecap:square;stroke-linejoin:miter;stroke-width:0.8;"/>
   </g>
   <g id="text_17">
    <!-- 시리즈 그래프 -->
    <defs>
     <path d="M 77.296875 -8.796875 
L 77.296875 85.40625 
L 84.625 85.40625 
L 84.625 -8.796875 
z
M 58.890625 15.09375 
Q 50.984375 21.140625 44.0625 30.296875 
Q 37.15625 39.453125 35.296875 46.09375 
Q 33.0625 38.484375 26.359375 29.25 
Q 19.671875 20.015625 11.8125 13.921875 
L 6.203125 18.796875 
Q 17.828125 26.609375 24.703125 38.734375 
Q 31.59375 50.875 31.59375 63.484375 
L 31.59375 78.90625 
L 38.8125 78.90625 
L 38.8125 63.8125 
Q 38.8125 51.609375 45.625 39.9375 
Q 52.4375 28.265625 64.015625 20.796875 
z
" id="MalgunGothic-49884"/>
     <path d="M 76.3125 -8.796875 
L 76.3125 85.40625 
L 83.59375 85.40625 
L 83.59375 -8.796875 
z
M 13.375 11.53125 
L 13.375 48.875 
L 49.21875 48.875 
L 49.21875 70.609375 
L 13.375 70.609375 
L 13.375 77.09375 
L 56.5 77.09375 
L 56.5 42.578125 
L 20.703125 42.578125 
L 20.703125 18.015625 
Q 56.203125 18.015625 65.578125 20.015625 
L 66.40625 13.71875 
Q 54.6875 11.53125 13.375 11.53125 
z
" id="MalgunGothic-47532"/>
     <path d="M 53.71875 69.828125 
Q 54.25 60.75 64.46875 51.703125 
Q 74.703125 42.671875 89.984375 39.40625 
L 84.8125 33.203125 
Q 73.578125 36.625 63.609375 43.921875 
Q 53.65625 51.21875 49.90625 58.59375 
Q 46.53125 51.265625 36.71875 43.984375 
Q 26.90625 36.71875 15.1875 33.203125 
L 10.015625 39.015625 
Q 24.90625 42.1875 35.171875 51.4375 
Q 45.453125 60.6875 46.09375 69.828125 
L 16.015625 69.828125 
L 16.015625 76.3125 
L 83.984375 76.3125 
L 83.984375 69.828125 
z
M 93.703125 7.515625 
L 6.296875 7.515625 
L 6.296875 14.015625 
L 93.703125 14.015625 
z
" id="MalgunGothic-51592"/>
     <path id="MalgunGothic-32"/>
     <path d="M 6.296875 9.71875 
L 6.296875 16.21875 
L 69.28125 16.21875 
Q 71.296875 30.953125 71.296875 47.703125 
L 71.296875 70.015625 
L 19.578125 70.015625 
L 19.578125 76.515625 
L 78.609375 76.515625 
L 78.609375 50.59375 
Q 78.609375 36.28125 76.421875 16.21875 
L 93.703125 16.21875 
L 93.703125 9.71875 
z
" id="MalgunGothic-44536"/>
     <path d="M 79.5 -8.796875 
L 79.5 37.984375 
L 67.484375 37.984375 
L 67.484375 -5.90625 
L 60.296875 -5.90625 
L 60.296875 83.5 
L 67.484375 83.5 
L 67.484375 44.484375 
L 79.5 44.484375 
L 79.5 85.40625 
L 86.8125 85.40625 
L 86.8125 -8.796875 
z
M 11.921875 12.796875 
L 11.921875 49.515625 
L 40.71875 49.515625 
L 40.71875 70.3125 
L 11.921875 70.3125 
L 11.921875 76.8125 
L 48 76.8125 
L 48 43.21875 
L 19.1875 43.21875 
L 19.1875 19.1875 
L 29.9375 19.1875 
Q 48.96875 19.1875 54.390625 20.125 
L 55.328125 14.015625 
Q 51.8125 13.234375 44.5625 13.015625 
Q 37.3125 12.796875 11.921875 12.796875 
z
" id="MalgunGothic-47000"/>
     <path d="M 15.578125 76.421875 
L 84.421875 76.421875 
L 84.421875 69.921875 
L 15.578125 69.921875 
z
M 69.671875 38.484375 
L 85.59375 38.484375 
L 85.59375 32.078125 
L 14.40625 32.078125 
L 14.40625 38.484375 
L 30.078125 38.484375 
L 28.90625 64.984375 
L 36.078125 64.984375 
L 37.3125 38.484375 
L 62.5 38.484375 
L 63.921875 64.984375 
L 71.09375 64.984375 
z
M 6.296875 6.203125 
L 6.296875 12.703125 
L 93.703125 12.703125 
L 93.703125 6.203125 
z
" id="MalgunGothic-54532"/>
    </defs>
    <g transform="translate(183.290625 28.56)scale(0.12 -0.12)">
     <use xlink:href="#MalgunGothic-49884"/>
     <use x="100" xlink:href="#MalgunGothic-47532"/>
     <use x="200" xlink:href="#MalgunGothic-51592"/>
     <use x="300" xlink:href="#MalgunGothic-32"/>
     <use x="335.15625" xlink:href="#MalgunGothic-44536"/>
     <use x="435.15625" xlink:href="#MalgunGothic-47000"/>
     <use x="535.15625" xlink:href="#MalgunGothic-54532"/>
    </g>
   </g>
  </g>
 </g>
 <defs>
  <clipPath id="pab9cf76858">
   <rect height="217.44" width="334.8" x="54" y="34.56"/>
  </clipPath>
 </defs>
</svg>
